<svg width="45" height="97" viewBox="0 0 45 97" fill="none" xmlns="http://www.w3.org/2000/svg">
<circle cx="10.5" cy="2.60742" r="2.5" transform="rotate(90 10.5 2.60742)" fill="#E43939"/>
<circle cx="26.4925" cy="2.5" r="2.5" transform="rotate(90 26.4925 2.5)" fill="#E43939"/>
<circle cx="42.4925" cy="2.5" r="2.5" transform="rotate(90 42.4925 2.5)" fill="#E43939"/>
<circle cx="10.5" cy="15.6074" r="2.5" transform="rotate(90 10.5 15.6074)" fill="#E43939"/>
<circle cx="26.4925" cy="15.5" r="2.5" transform="rotate(90 26.4925 15.5)" fill="#E43939"/>
<circle cx="42.4925" cy="15.5" r="2.5" transform="rotate(90 42.4925 15.5)" fill="#E43939"/>
<circle cx="10.5" cy="28.6074" r="2.5" transform="rotate(90 10.5 28.6074)" fill="#E43939"/>
<circle cx="26.4925" cy="28.5" r="2.5" transform="rotate(90 26.4925 28.5)" fill="#E43939"/>
<circle cx="42.4925" cy="28.5" r="2.5" transform="rotate(90 42.4925 28.5)" fill="#E43939"/>
<circle cx="10.5" cy="41.6074" r="2.5" transform="rotate(90 10.5 41.6074)" fill="#E43939"/>
<circle cx="26.4925" cy="41.5" r="2.5" transform="rotate(90 26.4925 41.5)" fill="#E43939"/>
<circle cx="42.4925" cy="41.5" r="2.5" transform="rotate(90 42.4925 41.5)" fill="#E43939"/>
<circle cx="10.5" cy="54.6074" r="2.5" transform="rotate(90 10.5 54.6074)" fill="#E43939"/>
<circle cx="26.4925" cy="54.5" r="2.5" transform="rotate(90 26.4925 54.5)" fill="#E43939"/>
<circle cx="42.4925" cy="54.5" r="2.5" transform="rotate(90 42.4925 54.5)" fill="#E43939"/>
<circle cx="10.5" cy="67.6074" r="2.5" transform="rotate(90 10.5 67.6074)" fill="#E43939"/>
<circle cx="26.4925" cy="67.5" r="2.5" transform="rotate(90 26.4925 67.5)" fill="#E43939"/>
<circle cx="42.4925" cy="67.5" r="2.5" transform="rotate(90 42.4925 67.5)" fill="#E43939"/>
<circle cx="10.5" cy="80.6074" r="2.5" transform="rotate(90 10.5 80.6074)" fill="#E43939"/>
<circle cx="26.4925" cy="80.5" r="2.5" transform="rotate(90 26.4925 80.5)" fill="#E43939"/>
<circle cx="42.4925" cy="80.5" r="2.5" transform="rotate(90 42.4925 80.5)" fill="#E43939"/>
<circle cx="10.5" cy="93.6074" r="2.5" transform="rotate(90 10.5 93.6074)" fill="#E43939"/>
<circle cx="26.4925" cy="93.5" r="2.5" transform="rotate(90 26.4925 93.5)" fill="#E43939"/>
<circle cx="42.4925" cy="93.5" r="2.5" transform="rotate(90 42.4925 93.5)" fill="#E43939"/>
<circle cx="2.5" cy="2.60742" r="2.5" transform="rotate(90 2.5 2.60742)" fill="#E43939"/>
<circle cx="18.4925" cy="2.5" r="2.5" transform="rotate(90 18.4925 2.5)" fill="#E43939"/>
<circle cx="34.4925" cy="2.5" r="2.5" transform="rotate(90 34.4925 2.5)" fill="#E43939"/>
<circle cx="2.5" cy="15.6074" r="2.5" transform="rotate(90 2.5 15.6074)" fill="#E43939"/>
<circle cx="18.4925" cy="15.5" r="2.5" transform="rotate(90 18.4925 15.5)" fill="#E43939"/>
<circle cx="34.4925" cy="15.5" r="2.5" transform="rotate(90 34.4925 15.5)" fill="#E43939"/>
<circle cx="2.5" cy="28.6074" r="2.5" transform="rotate(90 2.5 28.6074)" fill="#E43939"/>
<circle cx="18.4925" cy="28.5" r="2.5" transform="rotate(90 18.4925 28.5)" fill="#E43939"/>
<circle cx="34.4925" cy="28.5" r="2.5" transform="rotate(90 34.4925 28.5)" fill="#E43939"/>
<circle cx="2.5" cy="41.6074" r="2.5" transform="rotate(90 2.5 41.6074)" fill="#E43939"/>
<circle cx="18.4925" cy="41.5" r="2.5" transform="rotate(90 18.4925 41.5)" fill="#E43939"/>
<circle cx="34.4925" cy="41.5" r="2.5" transform="rotate(90 34.4925 41.5)" fill="#E43939"/>
<circle cx="2.5" cy="54.6074" r="2.5" transform="rotate(90 2.5 54.6074)" fill="#E43939"/>
<circle cx="18.4925" cy="54.5" r="2.5" transform="rotate(90 18.4925 54.5)" fill="#E43939"/>
<circle cx="34.4925" cy="54.5" r="2.5" transform="rotate(90 34.4925 54.5)" fill="#E43939"/>
<circle cx="2.5" cy="67.6074" r="2.5" transform="rotate(90 2.5 67.6074)" fill="#E43939"/>
<circle cx="18.4925" cy="67.5" r="2.5" transform="rotate(90 18.4925 67.5)" fill="#E43939"/>
<circle cx="34.4925" cy="67.5" r="2.5" transform="rotate(90 34.4925 67.5)" fill="#E43939"/>
<circle cx="2.5" cy="80.6074" r="2.5" transform="rotate(90 2.5 80.6074)" fill="#E43939"/>
<circle cx="18.4925" cy="80.5" r="2.5" transform="rotate(90 18.4925 80.5)" fill="#E43939"/>
<circle cx="34.4925" cy="80.5" r="2.5" transform="rotate(90 34.4925 80.5)" fill="#E43939"/>
<circle cx="2.5" cy="93.6074" r="2.5" transform="rotate(90 2.5 93.6074)" fill="#E43939"/>
<circle cx="18.4925" cy="93.5" r="2.5" transform="rotate(90 18.4925 93.5)" fill="#E43939"/>
<circle cx="34.4925" cy="93.5" r="2.5" transform="rotate(90 34.4925 93.5)" fill="#E43939"/>
</svg>
