<svg width="27" height="27" viewBox="0 0 27 27" fill="none" xmlns="http://www.w3.org/2000/svg">
<path d="M16.3925 6.66121C16.1514 6.9071 16.0164 7.2377 16.0164 7.58202C16.0164 7.92634 16.1514 8.25694 16.3925 8.50283L18.4972 10.6075C18.7431 10.8486 19.0737 10.9836 19.418 10.9836C19.7623 10.9836 20.0929 10.8486 20.3388 10.6075L25.298 5.64832C25.9595 7.11002 26.1598 8.73861 25.8722 10.317C25.5846 11.8954 24.8228 13.3487 23.6883 14.4832C22.5538 15.6177 21.1005 16.3795 19.5221 16.6671C17.9437 16.9547 16.3151 16.7544 14.8534 16.093L5.76365 25.1827C5.24033 25.706 4.53056 26 3.79048 26C3.0504 26 2.34063 25.706 1.81731 25.1827C1.294 24.6594 1 23.9496 1 23.2095C1 22.4694 1.294 21.7597 1.81731 21.2363L10.907 12.1466C10.2456 10.6849 10.0453 9.05633 10.3329 7.47791C10.6205 5.89949 11.3823 4.4462 12.5168 3.31172C13.6513 2.17723 15.1046 1.41543 16.683 1.12784C18.2614 0.840249 19.89 1.04052 21.3517 1.70198L16.4056 6.64805L16.3925 6.66121Z" stroke="white" stroke-width="2" stroke-linecap="round" stroke-linejoin="round"/>
</svg>
