<svg width="103" height="67" viewBox="0 0 103 67" fill="none" xmlns="http://www.w3.org/2000/svg">
<path d="M66.8748 64.8951C63.2748 68.0951 58.7081 66.2284 56.8748 64.8951L95.8748 0.395066C95.8748 0.395066 100.375 -1.60495 102.375 3.39507C92.0414 22.5617 70.4748 61.6951 66.8748 64.8951Z" fill="#E43939"/>
<path d="M58.8748 9.39503L33.8748 51.895L41.3748 55.895L66.3748 12.895C66.3748 12.895 64.8748 6.89505 58.8748 9.39503Z" fill="#E83838"/>
<path d="M84.3748 8.39498C82.9972 10.8949 52.8748 62.395 52.8748 62.395L45.8748 57.895C45.8748 57.895 75.3748 6.39492 77.8748 4.39498C80.3748 2.39505 85.7523 5.89506 84.3748 8.39498Z" fill="#E43939"/>
<path d="M0.374678 37.895C0.374678 37.895 13.3747 34.3951 29.8747 49.395L40.8748 30.3971C37.2081 29.2297 28.3747 26.795 22.3748 26.395C16.3748 25.995 13.7475 28.8964 13.1839 30.3971C11.3873 30.4263 -2.4315 30.8794 0.374678 37.895Z" fill="#E83838"/>
</svg>
