<svg width="172" height="65" viewBox="0 0 172 65" fill="none" xmlns="http://www.w3.org/2000/svg">
<path d="M27.7 3.72806C30.364 3.72806 32.692 4.25606 34.684 5.31206C36.676 6.36806 38.212 7.85606 39.292 9.77606C40.396 11.6721 40.948 13.8681 40.948 16.3641C40.948 18.8361 40.396 21.0321 39.292 22.9521C38.212 24.8721 36.664 26.3601 34.648 27.4161C32.656 28.4721 30.34 29.0001 27.7 29.0001H18.232V3.72806H27.7ZM27.304 23.6721C29.632 23.6721 31.444 23.0361 32.74 21.7641C34.036 20.4921 34.684 18.6921 34.684 16.3641C34.684 14.0361 34.036 12.2241 32.74 10.9281C31.444 9.63206 29.632 8.98406 27.304 8.98406H24.388V23.6721H27.304Z" fill="white"/>
<path d="M63.3242 18.6321C63.3242 19.2081 63.2882 19.8081 63.2162 20.4321H49.2842C49.3802 21.6801 49.7762 22.6401 50.4722 23.3121C51.1922 23.9601 52.0682 24.2841 53.1002 24.2841C54.6362 24.2841 55.7042 23.6361 56.3042 22.3401H62.8562C62.5202 23.6601 61.9082 24.8481 61.0202 25.9041C60.1562 26.9601 59.0642 27.7881 57.7442 28.3881C56.4242 28.9881 54.9482 29.2881 53.3162 29.2881C51.3482 29.2881 49.5962 28.8681 48.0602 28.0281C46.5242 27.1881 45.3242 25.9881 44.4602 24.4281C43.5962 22.8681 43.1642 21.0441 43.1642 18.9561C43.1642 16.8681 43.5842 15.0441 44.4242 13.4841C45.2882 11.9241 46.4882 10.7241 48.0242 9.88406C49.5602 9.04406 51.3242 8.62406 53.3162 8.62406C55.2602 8.62406 56.9882 9.03206 58.5002 9.84806C60.0122 10.6641 61.1882 11.8281 62.0282 13.3401C62.8922 14.8521 63.3242 16.6161 63.3242 18.6321ZM57.0242 17.0121C57.0242 15.9561 56.6642 15.1161 55.9442 14.4921C55.2242 13.8681 54.3242 13.5561 53.2442 13.5561C52.2122 13.5561 51.3362 13.8561 50.6162 14.4561C49.9202 15.0561 49.4882 15.9081 49.3202 17.0121H57.0242Z" fill="white"/>
<path d="M74.7438 29.2881C72.9918 29.2881 71.4318 28.9881 70.0638 28.3881C68.6958 27.7881 67.6158 26.9721 66.8238 25.9401C66.0318 24.8841 65.5878 23.7081 65.4918 22.4121H71.5758C71.6478 23.1081 71.9718 23.6721 72.5478 24.1041C73.1238 24.5361 73.8318 24.7521 74.6718 24.7521C75.4398 24.7521 76.0278 24.6081 76.4358 24.3201C76.8678 24.0081 77.0838 23.6121 77.0838 23.1321C77.0838 22.5561 76.7838 22.1361 76.1838 21.8721C75.5838 21.5841 74.6118 21.2721 73.2678 20.9361C71.8278 20.6001 70.6278 20.2521 69.6678 19.8921C68.7078 19.5081 67.8798 18.9201 67.1838 18.1281C66.4878 17.3121 66.1398 16.2201 66.1398 14.8521C66.1398 13.7001 66.4518 12.6561 67.0758 11.7201C67.7238 10.7601 68.6598 10.0041 69.8838 9.45206C71.1318 8.90006 72.6078 8.62406 74.3118 8.62406C76.8318 8.62406 78.8118 9.24806 80.2518 10.4961C81.7158 11.7441 82.5558 13.4001 82.7718 15.4641H77.0838C76.9878 14.7681 76.6758 14.2161 76.1478 13.8081C75.6438 13.4001 74.9718 13.1961 74.1318 13.1961C73.4118 13.1961 72.8598 13.3401 72.4758 13.6281C72.0918 13.8921 71.8998 14.2641 71.8998 14.7441C71.8998 15.3201 72.1998 15.7521 72.7998 16.0401C73.4238 16.3281 74.3838 16.6161 75.6798 16.9041C77.1678 17.2881 78.3798 17.6721 79.3158 18.0561C80.2518 18.4161 81.0678 19.0161 81.7638 19.8561C82.4838 20.6721 82.8558 21.7761 82.8798 23.1681C82.8798 24.3441 82.5438 25.4001 81.8718 26.3361C81.2238 27.2481 80.2758 27.9681 79.0278 28.4961C77.8038 29.0241 76.3758 29.2881 74.7438 29.2881Z" fill="white"/>
<path d="M85.422 18.9201C85.422 16.8561 85.806 15.0441 86.574 13.4841C87.366 11.9241 88.434 10.7241 89.778 9.88406C91.122 9.04406 92.622 8.62406 94.278 8.62406C95.694 8.62406 96.93 8.91206 97.986 9.48806C99.066 10.0641 99.894 10.8201 100.47 11.7561V8.91206H106.626V29.0001H100.47V26.1561C99.87 27.0921 99.03 27.8481 97.95 28.4241C96.894 29.0001 95.658 29.2881 94.242 29.2881C92.61 29.2881 91.122 28.8681 89.778 28.0281C88.434 27.1641 87.366 25.9521 86.574 24.3921C85.806 22.8081 85.422 20.9841 85.422 18.9201ZM100.47 18.9561C100.47 17.4201 100.038 16.2081 99.174 15.3201C98.334 14.4321 97.302 13.9881 96.078 13.9881C94.854 13.9881 93.81 14.4321 92.946 15.3201C92.106 16.1841 91.686 17.3841 91.686 18.9201C91.686 20.4561 92.106 21.6801 92.946 22.5921C93.81 23.4801 94.854 23.9241 96.078 23.9241C97.302 23.9241 98.334 23.4801 99.174 22.5921C100.038 21.7041 100.47 20.4921 100.47 18.9561Z" fill="white"/>
<path d="M121.16 14.0241H117.848V29.0001H111.692V14.0241H109.46V8.91206H111.692V8.33606C111.692 5.86406 112.4 3.99206 113.816 2.72006C115.232 1.42406 117.308 0.776063 120.044 0.776063C120.5 0.776063 120.836 0.788063 121.052 0.812063V6.03206C119.876 5.96006 119.048 6.12806 118.568 6.53606C118.088 6.94406 117.848 7.67606 117.848 8.73206V8.91206H121.16V14.0241Z" fill="white"/>
<path d="M127.148 6.82406C126.068 6.82406 125.18 6.51206 124.484 5.88806C123.812 5.24006 123.476 4.44806 123.476 3.51206C123.476 2.55206 123.812 1.76006 124.484 1.13606C125.18 0.488063 126.068 0.164062 127.148 0.164062C128.204 0.164062 129.068 0.488063 129.74 1.13606C130.436 1.76006 130.784 2.55206 130.784 3.51206C130.784 4.44806 130.436 5.24006 129.74 5.88806C129.068 6.51206 128.204 6.82406 127.148 6.82406ZM130.208 8.91206V29.0001H124.052V8.91206H130.208Z" fill="white"/>
<path d="M143.813 29.2881C141.845 29.2881 140.069 28.8681 138.485 28.0281C136.925 27.1881 135.689 25.9881 134.777 24.4281C133.889 22.8681 133.445 21.0441 133.445 18.9561C133.445 16.8921 133.901 15.0801 134.813 13.5201C135.725 11.9361 136.973 10.7241 138.557 9.88406C140.141 9.04406 141.917 8.62406 143.885 8.62406C145.853 8.62406 147.629 9.04406 149.213 9.88406C150.797 10.7241 152.045 11.9361 152.957 13.5201C153.869 15.0801 154.325 16.8921 154.325 18.9561C154.325 21.0201 153.857 22.8441 152.921 24.4281C152.009 25.9881 150.749 27.1881 149.141 28.0281C147.557 28.8681 145.781 29.2881 143.813 29.2881ZM143.813 23.9601C144.989 23.9601 145.985 23.5281 146.801 22.6641C147.641 21.8001 148.061 20.5641 148.061 18.9561C148.061 17.3481 147.653 16.1121 146.837 15.2481C146.045 14.3841 145.061 13.9521 143.885 13.9521C142.685 13.9521 141.689 14.3841 140.897 15.2481C140.105 16.0881 139.709 17.3241 139.709 18.9561C139.709 20.5641 140.093 21.8001 140.861 22.6641C141.653 23.5281 142.637 23.9601 143.813 23.9601Z" fill="white"/>
<path d="M0.117981 47.9261C0.117981 46.1581 0.516648 44.5721 1.31398 43.1681C2.11131 41.7467 3.19465 40.6374 4.56398 39.8401C5.95065 39.0427 7.48465 38.6441 9.16598 38.6441C11.142 38.6441 12.8666 39.1207 14.34 40.0741C15.8133 41.0274 16.888 42.3794 17.564 44.1301H14.73C14.2273 43.0381 13.4993 42.1974 12.546 41.6081C11.61 41.0187 10.4833 40.7241 9.16598 40.7241C7.90065 40.7241 6.76531 41.0187 5.75998 41.6081C4.75465 42.1974 3.96598 43.0381 3.39398 44.1301C2.82198 45.2047 2.53598 46.4701 2.53598 47.9261C2.53598 49.3647 2.82198 50.6301 3.39398 51.7221C3.96598 52.7967 4.75465 53.6287 5.75998 54.2181C6.76531 54.8074 7.90065 55.1021 9.16598 55.1021C10.4833 55.1021 11.61 54.8161 12.546 54.2441C13.4993 53.6547 14.2273 52.8141 14.73 51.7221H17.564C16.888 53.4554 15.8133 54.7987 14.34 55.7521C12.8666 56.6881 11.142 57.1561 9.16598 57.1561C7.48465 57.1561 5.95065 56.7661 4.56398 55.9861C3.19465 55.1887 2.11131 54.0881 1.31398 52.6841C0.516648 51.2801 0.117981 49.6941 0.117981 47.9261Z" fill="#E43939"/>
<path d="M27.3 57.2341C25.9653 57.2341 24.752 56.9307 23.66 56.3241C22.5853 55.7174 21.736 54.8594 21.112 53.7501C20.5053 52.6234 20.202 51.3234 20.202 49.8501C20.202 48.3941 20.514 47.1114 21.138 46.0021C21.7793 44.8754 22.646 44.0174 23.738 43.4281C24.83 42.8214 26.052 42.5181 27.404 42.5181C28.756 42.5181 29.978 42.8214 31.07 43.4281C32.162 44.0174 33.02 44.8667 33.644 45.9761C34.2853 47.0854 34.606 48.3767 34.606 49.8501C34.606 51.3234 34.2766 52.6234 33.618 53.7501C32.9766 54.8594 32.1013 55.7174 30.992 56.3241C29.8826 56.9307 28.652 57.2341 27.3 57.2341ZM27.3 55.1541C28.1493 55.1541 28.9466 54.9547 29.692 54.5561C30.4373 54.1574 31.0353 53.5594 31.486 52.7621C31.954 51.9647 32.188 50.9941 32.188 49.8501C32.188 48.7061 31.9626 47.7354 31.512 46.9381C31.0613 46.1407 30.472 45.5514 29.744 45.1701C29.016 44.7714 28.2273 44.5721 27.378 44.5721C26.5113 44.5721 25.714 44.7714 24.986 45.1701C24.2753 45.5514 23.7033 46.1407 23.27 46.9381C22.8366 47.7354 22.62 48.7061 22.62 49.8501C22.62 51.0114 22.828 51.9907 23.244 52.7881C23.6773 53.5854 24.2493 54.1834 24.96 54.5821C25.6706 54.9634 26.4506 55.1541 27.3 55.1541ZM29.952 38.5401L24.414 41.5041V39.7361L29.952 36.4861V38.5401Z" fill="#E43939"/>
<path d="M36.8328 49.8241C36.8328 48.3681 37.1275 47.0941 37.7168 46.0021C38.3062 44.8927 39.1122 44.0347 40.1348 43.4281C41.1748 42.8214 42.3362 42.5181 43.6188 42.5181C44.7282 42.5181 45.7595 42.7781 46.7128 43.2981C47.6662 43.8007 48.3942 44.4681 48.8968 45.3001V37.7601H51.2888V57.0001H48.8968V54.3221C48.4288 55.1714 47.7355 55.8734 46.8168 56.4281C45.8982 56.9654 44.8235 57.2341 43.5928 57.2341C42.3275 57.2341 41.1748 56.9221 40.1348 56.2981C39.1122 55.6741 38.3062 54.7987 37.7168 53.6721C37.1275 52.5454 36.8328 51.2627 36.8328 49.8241ZM48.8968 49.8501C48.8968 48.7754 48.6802 47.8394 48.2468 47.0421C47.8135 46.2447 47.2242 45.6381 46.4788 45.2221C45.7508 44.7887 44.9448 44.5721 44.0608 44.5721C43.1768 44.5721 42.3708 44.7801 41.6428 45.1961C40.9148 45.6121 40.3342 46.2187 39.9008 47.0161C39.4675 47.8134 39.2508 48.7494 39.2508 49.8241C39.2508 50.9161 39.4675 51.8694 39.9008 52.6841C40.3342 53.4814 40.9148 54.0967 41.6428 54.5301C42.3708 54.9461 43.1768 55.1541 44.0608 55.1541C44.9448 55.1541 45.7508 54.9461 46.4788 54.5301C47.2242 54.0967 47.8135 53.4814 48.2468 52.6841C48.6802 51.8694 48.8968 50.9247 48.8968 49.8501Z" fill="#E43939"/>
<path d="M56.5091 40.4381C56.0585 40.4381 55.6771 40.2821 55.3651 39.9701C55.0531 39.6581 54.8971 39.2767 54.8971 38.8261C54.8971 38.3754 55.0531 37.9941 55.3651 37.6821C55.6771 37.3701 56.0585 37.2141 56.5091 37.2141C56.9425 37.2141 57.3065 37.3701 57.6011 37.6821C57.9131 37.9941 58.0691 38.3754 58.0691 38.8261C58.0691 39.2767 57.9131 39.6581 57.6011 39.9701C57.3065 40.2821 56.9425 40.4381 56.5091 40.4381ZM57.6531 42.7521V57.0001H55.2871V42.7521H57.6531Z" fill="#E43939"/>
<path d="M67.5616 42.5181C68.7922 42.5181 69.8669 42.7867 70.7856 43.3241C71.7216 43.8614 72.4149 44.5374 72.8656 45.3521V42.7521H75.2576V57.3121C75.2576 58.6121 74.9802 59.7647 74.4256 60.7701C73.8709 61.7927 73.0736 62.5901 72.0336 63.1621C71.0109 63.7341 69.8149 64.0201 68.4456 64.0201C66.5736 64.0201 65.0136 63.5781 63.7656 62.6941C62.5176 61.8101 61.7809 60.6054 61.5556 59.0801H63.8956C64.1556 59.9467 64.6929 60.6401 65.5076 61.1601C66.3222 61.6974 67.3016 61.9661 68.4456 61.9661C69.7456 61.9661 70.8029 61.5587 71.6176 60.7441C72.4496 59.9294 72.8656 58.7854 72.8656 57.3121V54.3221C72.3976 55.1541 71.7042 55.8474 70.7856 56.4021C69.8669 56.9567 68.7922 57.2341 67.5616 57.2341C66.2962 57.2341 65.1436 56.9221 64.1036 56.2981C63.0809 55.6741 62.2749 54.7987 61.6856 53.6721C61.0962 52.5454 60.8016 51.2627 60.8016 49.8241C60.8016 48.3681 61.0962 47.0941 61.6856 46.0021C62.2749 44.8927 63.0809 44.0347 64.1036 43.4281C65.1436 42.8214 66.2962 42.5181 67.5616 42.5181ZM72.8656 49.8501C72.8656 48.7754 72.6489 47.8394 72.2156 47.0421C71.7822 46.2447 71.1929 45.6381 70.4476 45.2221C69.7196 44.7887 68.9136 44.5721 68.0296 44.5721C67.1456 44.5721 66.3396 44.7801 65.6116 45.1961C64.8836 45.6121 64.3029 46.2187 63.8696 47.0161C63.4362 47.8134 63.2196 48.7494 63.2196 49.8241C63.2196 50.9161 63.4362 51.8694 63.8696 52.6841C64.3029 53.4814 64.8836 54.0967 65.6116 54.5301C66.3396 54.9461 67.1456 55.1541 68.0296 55.1541C68.9136 55.1541 69.7196 54.9461 70.4476 54.5301C71.1929 54.0967 71.7822 53.4814 72.2156 52.6841C72.6489 51.8694 72.8656 50.9247 72.8656 49.8501Z" fill="#E43939"/>
<path d="M85.4699 57.2341C84.1352 57.2341 82.9219 56.9307 81.8299 56.3241C80.7552 55.7174 79.9059 54.8594 79.2819 53.7501C78.6752 52.6234 78.3719 51.3234 78.3719 49.8501C78.3719 48.3941 78.6839 47.1114 79.3079 46.0021C79.9492 44.8754 80.8159 44.0174 81.9079 43.4281C82.9999 42.8214 84.2219 42.5181 85.5739 42.5181C86.9259 42.5181 88.1479 42.8214 89.2399 43.4281C90.3319 44.0174 91.1899 44.8667 91.8139 45.9761C92.4552 47.0854 92.7759 48.3767 92.7759 49.8501C92.7759 51.3234 92.4466 52.6234 91.7879 53.7501C91.1466 54.8594 90.2712 55.7174 89.1619 56.3241C88.0526 56.9307 86.8219 57.2341 85.4699 57.2341ZM85.4699 55.1541C86.3192 55.1541 87.1166 54.9547 87.8619 54.5561C88.6072 54.1574 89.2052 53.5594 89.6559 52.7621C90.1239 51.9647 90.3579 50.9941 90.3579 49.8501C90.3579 48.7061 90.1326 47.7354 89.6819 46.9381C89.2312 46.1407 88.6419 45.5514 87.9139 45.1701C87.1859 44.7714 86.3972 44.5721 85.5479 44.5721C84.6812 44.5721 83.8839 44.7714 83.1559 45.1701C82.4452 45.5514 81.8732 46.1407 81.4399 46.9381C81.0066 47.7354 80.7899 48.7061 80.7899 49.8501C80.7899 51.0114 80.9979 51.9907 81.4139 52.7881C81.8472 53.5854 82.4192 54.1834 83.1299 54.5821C83.8406 54.9634 84.6206 55.1541 85.4699 55.1541Z" fill="#E43939"/>
<path d="M101.934 47.9261C101.934 46.1581 102.333 44.5721 103.13 43.1681C103.928 41.7467 105.011 40.6374 106.38 39.8401C107.767 39.0427 109.301 38.6441 110.982 38.6441C112.958 38.6441 114.683 39.1207 116.156 40.0741C117.63 41.0274 118.704 42.3794 119.38 44.1301H116.546C116.044 43.0381 115.316 42.1974 114.362 41.6081C113.426 41.0187 112.3 40.7241 110.982 40.7241C109.717 40.7241 108.582 41.0187 107.576 41.6081C106.571 42.1974 105.782 43.0381 105.21 44.1301C104.638 45.2047 104.352 46.4701 104.352 47.9261C104.352 49.3647 104.638 50.6301 105.21 51.7221C105.782 52.7967 106.571 53.6287 107.576 54.2181C108.582 54.8074 109.717 55.1021 110.982 55.1021C112.3 55.1021 113.426 54.8161 114.362 54.2441C115.316 53.6547 116.044 52.8141 116.546 51.7221H119.38C118.704 53.4554 117.63 54.7987 116.156 55.7521C114.683 56.6881 112.958 57.1561 110.982 57.1561C109.301 57.1561 107.767 56.7661 106.38 55.9861C105.011 55.1887 103.928 54.0881 103.13 52.6841C102.333 51.2801 101.934 49.6941 101.934 47.9261Z" fill="#E43939"/>
<path d="M135.902 49.3301C135.902 49.7807 135.876 50.2574 135.824 50.7601H124.436C124.523 52.1641 125 53.2647 125.866 54.0621C126.75 54.8421 127.816 55.2321 129.064 55.2321C130.087 55.2321 130.936 54.9981 131.612 54.5301C132.306 54.0447 132.791 53.4034 133.068 52.6061H135.616C135.235 53.9754 134.472 55.0934 133.328 55.9601C132.184 56.8094 130.763 57.2341 129.064 57.2341C127.712 57.2341 126.499 56.9307 125.424 56.3241C124.367 55.7174 123.535 54.8594 122.928 53.7501C122.322 52.6234 122.018 51.3234 122.018 49.8501C122.018 48.3767 122.313 47.0854 122.902 45.9761C123.492 44.8667 124.315 44.0174 125.372 43.4281C126.447 42.8214 127.678 42.5181 129.064 42.5181C130.416 42.5181 131.612 42.8127 132.652 43.4021C133.692 43.9914 134.49 44.8061 135.044 45.8461C135.616 46.8687 135.902 48.0301 135.902 49.3301ZM133.458 48.8361C133.458 47.9347 133.259 47.1634 132.86 46.5221C132.462 45.8634 131.916 45.3694 131.222 45.0401C130.546 44.6934 129.792 44.5201 128.96 44.5201C127.764 44.5201 126.742 44.9014 125.892 45.6641C125.06 46.4267 124.584 47.4841 124.462 48.8361H133.458Z" fill="#E43939"/>
<path d="M141.391 45.0661C141.807 44.2514 142.397 43.6187 143.159 43.1681C143.939 42.7174 144.884 42.4921 145.993 42.4921V44.9361H145.369C142.717 44.9361 141.391 46.3747 141.391 49.2521V57.0001H139.025V42.7521H141.391V45.0661Z" fill="#E43939"/>
<path d="M151.611 44.7021V53.1001C151.611 53.7934 151.758 54.2874 152.053 54.5821C152.347 54.8594 152.859 54.9981 153.587 54.9981H155.329V57.0001H153.197C151.879 57.0001 150.891 56.6967 150.233 56.0901C149.574 55.4834 149.245 54.4867 149.245 53.1001V44.7021H147.399V42.7521H149.245V39.1641H151.611V42.7521H155.329V44.7021H151.611Z" fill="#E43939"/>
<path d="M164.409 57.2341C163.075 57.2341 161.861 56.9307 160.769 56.3241C159.695 55.7174 158.845 54.8594 158.221 53.7501C157.615 52.6234 157.311 51.3234 157.311 49.8501C157.311 48.3941 157.623 47.1114 158.247 46.0021C158.889 44.8754 159.755 44.0174 160.847 43.4281C161.939 42.8214 163.161 42.5181 164.513 42.5181C165.865 42.5181 167.087 42.8214 168.179 43.4281C169.271 44.0174 170.129 44.8667 170.753 45.9761C171.395 47.0854 171.715 48.3767 171.715 49.8501C171.715 51.3234 171.386 52.6234 170.727 53.7501C170.086 54.8594 169.211 55.7174 168.101 56.3241C166.992 56.9307 165.761 57.2341 164.409 57.2341ZM164.409 55.1541C165.259 55.1541 166.056 54.9547 166.801 54.5561C167.547 54.1574 168.145 53.5594 168.595 52.7621C169.063 51.9647 169.297 50.9941 169.297 49.8501C169.297 48.7061 169.072 47.7354 168.621 46.9381C168.171 46.1407 167.581 45.5514 166.853 45.1701C166.125 44.7714 165.337 44.5721 164.487 44.5721C163.621 44.5721 162.823 44.7714 162.095 45.1701C161.385 45.5514 160.813 46.1407 160.379 46.9381C159.946 47.7354 159.729 48.7061 159.729 49.8501C159.729 51.0114 159.937 51.9907 160.353 52.7881C160.787 53.5854 161.359 54.1834 162.069 54.5821C162.78 54.9634 163.56 55.1541 164.409 55.1541Z" fill="#E43939"/>
</svg>
