<svg width="44" height="44" viewBox="0 0 44 44" fill="none" xmlns="http://www.w3.org/2000/svg">
<path d="M43 22C43 33.598 33.598 43 22 43C10.402 43 1 33.598 1 22C1 10.402 10.402 1 22 1C33.598 1 43 10.402 43 22Z" fill="white"/>
<path d="M43 22C43 33.598 33.598 43 22 43C10.402 43 1 33.598 1 22C1 10.402 10.402 1 22 1C33.598 1 43 10.402 43 22Z" stroke="#E43939" stroke-width="2" stroke-linecap="round" stroke-linejoin="round"/>
<path d="M27.3333 16.6667C29.2562 16.6667 31.1002 17.4305 32.4599 18.7901C33.8195 20.1498 34.5833 21.9938 34.5833 23.9167V32.375H29.75V23.9167C29.75 23.2757 29.4954 22.661 29.0422 22.2078C28.589 21.7546 27.9743 21.5 27.3333 21.5C26.6924 21.5 26.0777 21.7546 25.6245 22.2078C25.1713 22.661 24.9167 23.2757 24.9167 23.9167V32.375H20.0833V23.9167C20.0833 21.9938 20.8472 20.1498 22.2068 18.7901C23.5664 17.4305 25.4105 16.6667 27.3333 16.6667Z" stroke="#E43939" stroke-width="2" stroke-linecap="round" stroke-linejoin="round"/>
<path d="M15.25 17.875H10.4167V32.375H15.25V17.875Z" stroke="#E43939" stroke-width="2" stroke-linecap="round" stroke-linejoin="round"/>
<path d="M12.8333 14.25C14.168 14.25 15.25 13.168 15.25 11.8333C15.25 10.4986 14.168 9.41667 12.8333 9.41667C11.4986 9.41667 10.4167 10.4986 10.4167 11.8333C10.4167 13.168 11.4986 14.25 12.8333 14.25Z" stroke="#E43939" stroke-width="2" stroke-linecap="round" stroke-linejoin="round"/>
</svg>
