<svg width="386" height="320" viewBox="0 0 386 320" fill="none" xmlns="http://www.w3.org/2000/svg">
<path d="M150.065 6.18552C158.218 -0.256651 169.506 -0.983584 178.419 4.35962L359.714 113.052C369.854 119.131 374.349 131.481 370.49 142.655L324.58 275.594C321.528 284.431 313.8 290.827 304.547 292.173L163.611 312.669L67.4446 319.063C55.162 319.88 44.1126 311.634 41.4003 299.627L5.08108 138.843C2.96064 129.456 6.41667 119.685 13.9677 113.719L150.065 6.18552Z" fill="#E43939"/>
<path d="M76.5502 53.7878C75.6862 52.7109 75.8588 51.1374 76.9358 50.2734C78.0127 49.4093 79.5862 49.582 80.4502 50.6589C81.3143 51.7359 81.1417 53.3093 80.0647 54.1734C78.9877 55.0374 77.4143 54.8648 76.5502 53.7878Z" fill="#E43939"/>
<path d="M66.4103 61.9231C65.5462 60.8461 65.7188 59.2726 66.7958 58.4086C67.8728 57.5446 69.4462 57.7172 70.3102 58.7942C71.1743 59.8711 71.0017 61.4446 69.9247 62.3086C68.8478 63.1726 67.2743 63 66.4103 61.9231Z" fill="#E43939"/>
<path d="M56.2704 70.0581C55.4063 68.9811 55.5789 67.4076 56.6559 66.5436C57.7328 65.6796 59.3063 65.8522 60.1703 66.9292C61.0344 68.0061 60.8618 69.5796 59.7848 70.4436C58.7078 71.3076 57.1344 71.135 56.2704 70.0581Z" fill="#E43939"/>
<path d="M46.1303 78.1933C45.2663 77.1164 45.4389 75.5429 46.5159 74.6789C47.5928 73.8149 49.1663 73.9875 50.0303 75.0644C50.8944 76.1414 50.7217 77.7148 49.6448 78.5789C48.5678 79.4429 46.9944 79.2703 46.1303 78.1933Z" fill="#E43939"/>
<path d="M35.9903 86.3284C35.1263 85.2514 35.2989 83.6779 36.3759 82.8139C37.4528 81.9499 39.0263 82.1225 39.8903 83.1994C40.7543 84.2764 40.5817 85.8499 39.5048 86.7139C38.4278 87.5779 36.8543 87.4053 35.9903 86.3284Z" fill="#E43939"/>
<path d="M25.8503 94.4636C24.9863 93.3867 25.1589 91.8132 26.2359 90.9492C27.3128 90.0851 28.8863 90.2578 29.7503 91.3347C30.6143 92.4117 30.4417 93.9851 29.3648 94.8492C28.2878 95.7132 26.7143 95.5406 25.8503 94.4636Z" fill="#E43939"/>
<path d="M15.7104 102.599C14.8464 101.522 15.019 99.9484 16.096 99.0844C17.1729 98.2204 18.7464 98.393 19.6104 99.4699C20.4745 100.547 20.3018 102.12 19.2249 102.984C18.1479 103.848 16.5745 103.676 15.7104 102.599Z" fill="#E43939"/>
<path d="M5.57036 110.734C4.70633 109.657 4.87895 108.083 5.9559 107.219C7.03285 106.355 8.60633 106.528 9.47035 107.605C10.3344 108.682 10.1618 110.255 9.08481 111.119C8.00785 111.983 6.43438 111.811 5.57036 110.734Z" fill="#E43939"/>
<path d="M71.544 47.5478C70.68 46.4709 70.8526 44.8974 71.9296 44.0334C73.0065 43.1693 74.58 43.3419 75.444 44.4189C76.308 45.4959 76.1354 47.0693 75.0585 47.9334C73.9815 48.7974 72.408 48.6248 71.544 47.5478Z" fill="#E43939"/>
<path d="M61.404 55.6831C60.54 54.6061 60.7126 53.0326 61.7896 52.1686C62.8665 51.3046 64.44 51.4772 65.304 52.5542C66.168 53.6311 65.9954 55.2046 64.9185 56.0686C63.8415 56.9326 62.268 56.76 61.404 55.6831Z" fill="#E43939"/>
<path d="M51.264 63.8181C50.4 62.7411 50.5726 61.1677 51.6495 60.3036C52.7265 59.4396 54.3 59.6122 55.164 60.6892C56.028 61.7661 55.8554 63.3396 54.7784 64.2036C53.7015 65.0677 52.128 64.895 51.264 63.8181Z" fill="#E43939"/>
<path d="M41.1241 71.9533C40.2601 70.8764 40.4327 69.3029 41.5097 68.4389C42.5866 67.5748 44.1601 67.7475 45.0241 68.8244C45.8881 69.9014 45.7155 71.4748 44.6386 72.3389C43.5616 73.2029 41.9881 73.0303 41.1241 71.9533Z" fill="#E43939"/>
<path d="M30.9841 80.0883C30.1201 79.0114 30.2927 77.4379 31.3696 76.5739C32.4466 75.7099 34.0201 75.8825 34.8841 76.9594C35.7481 78.0364 35.5755 79.6099 34.4986 80.4739C33.4216 81.3379 31.8481 81.1653 30.9841 80.0883Z" fill="#E43939"/>
<path d="M20.8441 88.2236C19.9801 87.1466 20.1527 85.5732 21.2296 84.7092C22.3066 83.8451 23.8801 84.0178 24.7441 85.0947C25.6081 86.1717 25.4355 87.7451 24.3585 88.6091C23.2816 89.4732 21.7081 89.3006 20.8441 88.2236Z" fill="#E43939"/>
<path d="M10.7041 96.3589C9.84006 95.2819 10.0127 93.7084 11.0896 92.8444C12.1666 91.9804 13.7401 92.153 14.6041 93.2299C15.4681 94.3069 15.2955 95.8804 14.2185 96.7444C13.1416 97.6084 11.5681 97.4358 10.7041 96.3589Z" fill="#E43939"/>
<path d="M0.564131 104.494C-0.299892 103.417 -0.127278 101.843 0.949675 100.979C2.02663 100.115 3.6001 100.288 4.46412 101.365C5.32815 102.442 5.15553 104.015 4.07858 104.879C3.00163 105.743 1.42815 105.571 0.564131 104.494Z" fill="#E43939"/>
<path d="M382.126 150.731C380.819 150.283 380.124 148.861 380.572 147.555C381.019 146.249 382.441 145.553 383.747 146.001C385.053 146.449 385.749 147.871 385.301 149.177C384.853 150.483 383.432 151.178 382.126 150.731Z" fill="#E43939"/>
<path d="M377.909 163.028C376.603 162.58 375.907 161.158 376.355 159.852C376.803 158.546 378.224 157.851 379.531 158.298C380.837 158.746 381.532 160.168 381.084 161.474C380.637 162.78 379.215 163.476 377.909 163.028Z" fill="#E43939"/>
<path d="M373.692 175.325C372.386 174.877 371.69 173.455 372.138 172.149C372.586 170.843 374.008 170.147 375.314 170.595C376.62 171.043 377.316 172.465 376.868 173.771C376.42 175.077 374.998 175.773 373.692 175.325Z" fill="#E43939"/>
<path d="M369.475 187.622C368.169 187.174 367.474 185.752 367.921 184.446C368.369 183.14 369.791 182.444 371.097 182.892C372.403 183.34 373.099 184.762 372.651 186.068C372.203 187.374 370.781 188.07 369.475 187.622Z" fill="#E43939"/>
<path d="M365.258 199.919C363.952 199.471 363.257 198.05 363.705 196.743C364.152 195.437 365.574 194.742 366.88 195.19C368.186 195.637 368.882 197.059 368.434 198.365C367.986 199.671 366.565 200.367 365.258 199.919Z" fill="#E43939"/>
<path d="M361.042 212.216C359.736 211.768 359.04 210.347 359.488 209.041C359.936 207.734 361.358 207.039 362.664 207.487C363.97 207.934 364.665 209.356 364.217 210.662C363.77 211.968 362.348 212.664 361.042 212.216Z" fill="#E43939"/>
<path d="M356.825 224.513C355.519 224.065 354.823 222.644 355.271 221.338C355.719 220.032 357.141 219.336 358.447 219.784C359.753 220.232 360.449 221.653 360.001 222.959C359.553 224.265 358.131 224.961 356.825 224.513Z" fill="#E43939"/>
<path d="M352.608 236.811C351.302 236.363 350.606 234.941 351.054 233.635C351.502 232.329 352.924 231.633 354.23 232.081C355.536 232.529 356.232 233.951 355.784 235.257C355.336 236.563 353.914 237.258 352.608 236.811Z" fill="#E43939"/>
<path d="M374.558 148.136C373.252 147.688 372.556 146.266 373.004 144.96C373.452 143.654 374.874 142.958 376.18 143.406C377.486 143.854 378.182 145.276 377.734 146.582C377.286 147.888 375.864 148.584 374.558 148.136Z" fill="#E43939"/>
<path d="M370.341 160.433C369.035 159.985 368.34 158.563 368.788 157.257C369.235 155.951 370.657 155.255 371.963 155.703C373.269 156.151 373.965 157.573 373.517 158.879C373.069 160.185 371.647 160.881 370.341 160.433Z" fill="#E43939"/>
<path d="M366.124 172.73C364.818 172.282 364.123 170.86 364.571 169.554C365.018 168.248 366.44 167.553 367.746 168C369.052 168.448 369.748 169.87 369.3 171.176C368.852 172.482 367.431 173.178 366.124 172.73Z" fill="#E43939"/>
<path d="M361.908 185.027C360.602 184.579 359.906 183.158 360.354 181.852C360.802 180.546 362.224 179.85 363.53 180.298C364.836 180.746 365.531 182.167 365.084 183.473C364.636 184.779 363.214 185.475 361.908 185.027Z" fill="#E43939"/>
<path d="M357.691 197.324C356.385 196.876 355.689 195.454 356.137 194.148C356.585 192.842 358.007 192.147 359.313 192.594C360.619 193.042 361.314 194.464 360.867 195.77C360.419 197.076 358.997 197.772 357.691 197.324Z" fill="#E43939"/>
<path d="M353.474 209.621C352.168 209.174 351.472 207.752 351.92 206.446C352.368 205.14 353.79 204.444 355.096 204.892C356.402 205.34 357.098 206.761 356.65 208.068C356.202 209.374 354.78 210.069 353.474 209.621Z" fill="#E43939"/>
<path d="M349.258 221.919C347.952 221.471 347.256 220.049 347.704 218.743C348.152 217.437 349.573 216.741 350.879 217.189C352.185 217.637 352.881 219.059 352.433 220.365C351.985 221.671 350.564 222.367 349.258 221.919Z" fill="#E43939"/>
<path d="M345.041 234.216C343.735 233.768 343.039 232.346 343.487 231.04C343.935 229.734 345.357 229.038 346.663 229.486C347.969 229.934 348.664 231.356 348.216 232.662C347.769 233.968 346.347 234.663 345.041 234.216Z" fill="#E43939"/>
</svg>
